<svg height="512" viewBox="0 0 56 56" width="512" xmlns="http://www.w3.org/2000/svg"><g id="Page-1" fill="none" fill-rule="evenodd"><g id="021---Occult-Triangle-Eye" fill="rgb(225,225,225,0.6)" fill-rule="nonzero"><path id="Shape" d="m45.394 28.054c.0164572-.0130906.0260465-.0329714.0260465-.054s-.0095893-.0409094-.0260465-.054c-2.1524029-2.5177528-4.6403016-4.7280593-7.394-6.569 2.6706026 4.0118704 2.6706026 9.2351296 0 13.247.433-.283.867-.579 1.3-.9 2.2400299-1.6524847 4.2845415-3.554746 6.094-5.67z"/><path id="Shape" d="m28 38c5.5228475 0 10-4.4771525 10-10s-4.4771525-10-10-10-10 4.4771525-10 10c.0060624 5.5203344 4.4796656 9.9939376 10 10zm-6.377-12.869c.1425977-.3105371.4338901-.526762.7724108-.5733567.3385208-.0465947.6773977.0828924.8985892.3433567.2124507.2471567.5230973.3880271.849.385.6308049-.0011009 1.1418991-.5121951 1.143-1.143.0029116-.3261643-.137911-.6370713-.385-.85-.2599934-.2212403-.3891596-.5598275-.3425822-.8980203.0465775-.3381928.2624623-.6292579.5725822-.7719797.8996422-.4138525 1.8787384-.6264621 2.869-.623 3.8659932 0 7 3.1340068 7 7s-3.1340068 7-7 7-7-3.1340068-7-7c-.0034621-.9902616.2091475-1.9693578.623-2.869z"/><path id="Shape" d="m28 16c4.905 0 9.662 2.423 13.5 5.449l-12.542-20.913c-.2044121-.3331023-.5671785-.53611226-.958-.53611226s-.7535879.20300996-.958.53611226l-12.542 20.913c3.836-3.024 8.594-5.449 13.5-5.449zm-2-9h4c.5522847 0 1 .44771525 1 1s-.4477153 1-1 1h-4c-.5522847 0-1-.44771525-1-1s.4477153-1 1-1zm-2 5h8c.5522847 0 1 .4477153 1 1s-.4477153 1-1 1h-8c-.5522847 0-1-.4477153-1-1s.4477153-1 1-1z"/><path id="Shape" d="m10.606 27.946c-.0164572.0130906-.0260465.0329714-.0260465.054s.0095893.0409094.0260465.054c2.1540267 2.5147239 4.6417256 4.7231707 7.394 6.564-2.6687452-4.0102492-2.6687452-9.2307508 0-13.241-2.7536984 1.8409407-5.2415971 4.0512472-7.394 6.569z"/><path id="Shape" d="m47.138 26.964 5.362 8.941c2.5761354-12.6406938-4.9288737-25.1556967-17.293-28.837l11.924 19.884z"/><path id="Shape" d="m28 33c2.7614237 0 5-2.2385763 5-5s-2.2385763-5-5-5c-.3018421-.0004967-.6030971.0266162-.9.081.4083294 1.1443774.1209297 2.4215976-.7382363 3.2807637-.8591661.859166-2.1363863 1.1465657-3.2807637.7382363-.0543838.2969029-.0814967.5981579-.081.9.0033061 2.7600532 2.2399468 4.9966939 5 5z"/><path id="Shape" d="m8.862 26.965.008-.015 11.923-19.882c-12.36412633 3.6813033-19.86913535 16.1963062-17.293 28.837z"/><path id="Shape" d="m55.845 45.372-3.819-6.372c-.007-.013-.015-.024-.022-.037l-5.489-9.153c-1.8102341 2.0517733-3.8332448 3.9055015-6.035 5.53-4.215 3.092-8.415 4.66-12.48 4.66-7.056 0-13.835-4.863-18.515-10.186l-5.485 9.152c-.006.013-.015.024-.022.037l-3.823 6.369c-.20094833.3267252-.20594353.7374847-.013 1.069.19741217.3495591.56957761.5638129.971.559h53.774c.4014224.0048129.7735878-.2094409.971-.559.1929435-.3315153.1879483-.7422748-.013-1.069zm-39.845-1.372h-8c-.55228475 0-1-.4477153-1-1s.44771525-1 1-1h8c.5522847 0 1 .4477153 1 1s-.4477153 1-1 1zm16 0h-8c-.5522847 0-1-.4477153-1-1s.4477153-1 1-1h8c.5522847 0 1 .4477153 1 1s-.4477153 1-1 1zm16 0h-8c-.5522847 0-1-.4477153-1-1s.4477153-1 1-1h8c.5522847 0 1 .4477153 1 1s-.4477153 1-1 1z"/><path id="Shape" d="m28 56c6.4642215-.0015027 12.6757338-2.510915 17.327-7h-34.654c4.6512662 4.489085 10.8627785 6.9984973 17.327 7z"/></g></g></svg>